{"title":"Underworld Awakening(2012)MPEG-4[DaScubaDude]","uid":15529661,"size":961041536,"categoryP":"video","categoryS":"movies","magnet":"?xt=urn:btih:969362e2502d73baced662c63f07a873f7cbd5d2&amp;dn=Underworld+Awakening%282012%29MPEG-4%5BDaScubaDude%5D&amp;tr=udp%3A%2F%2Ftracker.leechers-paradise.org%3A6969&amp;tr=udp%3A%2F%2Fzer0day.ch%3A1337&amp;tr=udp%3A%2F%2Fopen.demonii.com%3A1337&amp;tr=udp%3A%2F%2Ftracker.coppersurfer.tk%3A6969&amp;tr=udp%3A%2F%2Fexodus.desync.com%3A6969","seeders":2,"leechers":0,"uploader":"dascuba","files":1,"time":1470816487,"description":"Underworld: Awakening (2012)\r\nR | 1h 28min | Action, Fantasy, Horror | 20 January 2012 (USA)\r\nWhen human forces discover the existence of the Vampire and Lycan clans, a war to eradicate both species commences. The vampire warrior Selene leads the battle against humankind.\r\nDirectors: Måns Mårlind (as Mårlind), Björn Stein (as Stein)\r\nWriters: Len Wiseman (screenplay), John Hlavin (screenplay) |\r\nStars: Kate Beckinsale, Michael Ealy, India Eisley |\r\n\r\n General\r\nComplete name                            : WinXVideosUnderworld AwakeningUNDERWORLD_AWAKENING_Title1.mp4\r\nFormat                                   : MPEG-4\r\nFormat profile                           : Base Media\r\nCodec ID                                 : isom (isom/iso2/avc1/mp41)\r\nFile size                                : 917 MiB\r\nDuration                                 : 1h 28mn\r\nOverall bit rate                         : 1 448 Kbps\r\nMovie name                               : UNDERWORLD_AWAKENING\r\nGenre                                    : Action\r\nWriting application                      : Lavf54.6.100\r\n\r\nVideo\r\nID                                       : 1\r\nFormat                                   : AVC\r\nFormat/Info                              : Advanced Video Codec\r\nFormat profile                           :   \r\nFormat settings, CABAC                   : No\r\nFormat settings, ReFrames                : 6 frames\r\nCodec ID                                 : avc1\r\nCodec ID/Info                            : Advanced Video Coding\r\nDuration                                 : 1h 28mn\r\nBit rate                                 : 1 189 Kbps\r\nWidth                                    : 720 pixels\r\nHeight                                   : 404 pixels\r\nDisplay aspect ratio                     : 16:9\r\nFrame rate mode                          : Constant\r\nFrame rate                               : 29.970 (30000/1001) fps\r\nColor space                              : YUV\r\nChroma subsampling                       : 4:2:0\r\nBit depth                                : 8 bits\r\nScan type                                : Progressive\r\nBits/(Pixel*Frame)                       : 0.136\r\nStream size                              : 752 MiB (82%)\r\n\r\nAudio\r\nID                                       : 2\r\nFormat                                   : AAC\r\nFormat/Info                              : Advanced Audio Codec\r\nFormat profile                           : LC\r\nCodec ID                                 : 40\r\nDuration                                 : 1h 28mn\r\nBit rate mode                            : Constant\r\nBit rate                                 : 253 Kbps\r\nChannel(s)                               : 2 channels\r\nChannel(s)_Original                      : 6 channels\r\nChannel positions                        : Front: L C R, Side: L R, LFE\r\nSampling rate                            : 44.1 KHz\r\nFrame rate                               : 43.066 fps (1024 spf)\r\nCompression mode                         : Lossy\r\nStream size                              : 160 MiB (17%)\r\nDefault                                  : Yes\r\nAlternate group                          : 1","torrent":{"xt":"urn:btih:969362e2502d73baced662c63f07a873f7cbd5d2","amp;dn":"Underworld+Awakening%282012%29MPEG-4%5BDaScubaDude%5D","amp;tr":["udp%3A%2F%2Ftracker.leechers-paradise.org%3A6969","udp%3A%2F%2Fzer0day.ch%3A1337","udp%3A%2F%2Fopen.demonii.com%3A1337","udp%3A%2F%2Ftracker.coppersurfer.tk%3A6969","udp%3A%2F%2Fexodus.desync.com%3A6969"],"infoHash":"969362e2502d73baced662c63f07a873f7cbd5d2","infoHashBuffer":{"type":"Buffer","data":[150,147,98,226,80,45,115,186,206,214,98,198,63,7,168,115,247,203,213,210]},"announce":[],"urlList":[]}}